# xmcd
# 
# Track frame offsets:
#     150
#     17547
#     32017
#     43927
#     56815
#     82817
#     97692
#     129020
#     155535
# 
# Disc length: 2401
# 
# Revision: 10
# Processed by: cddbd v1.5.2PL0 Copyright (c) Steve Scherf et al.
# Submitted via: fre:ac v1.0.27
# 
DISCID=5d095f09
DTITLE=AC/DC - Dirty Deeds Done Dirt Cheap
DYEAR=1976
DGENRE=Hard Rock
TTITLE0=Dirty Deeds Done Dirt Cheap
TTITLE1=Love At First Feel
TTITLE2=Big Balls
TTITLE3=Rocker
TTITLE4=Problem Child
TTITLE5=There's Gonna Be Some Rockin'
TTITLE6=Ain't No Fun (Waiting Round To Be A Millionaire)
TTITLE7=Ride On
TTITLE8=Squealer
EXTD=2003 Remastered YEAR: 1976
EXTT0=
EXTT1=
EXTT2=
EXTT3=
EXTT4=
EXTT5=
EXTT6=
EXTT7=
EXTT8=
PLAYORDER=
